<mxfile host="app.diagrams.net" agent="Mozilla/5.0 (Windows NT 10.0; Win64; x64) AppleWebKit/537.36 (KHTML, like Gecko) Chrome/141.0.0.0 Safari/537.36" version="28.2.6">
  <diagram name="Seite-1" id="RkiwsYJOk1E3sb3KsASB">
    <mxGraphModel dx="1184" dy="780" grid="1" gridSize="10" guides="1" tooltips="1" connect="1" arrows="1" fold="1" page="1" pageScale="1" pageWidth="827" pageHeight="1169" math="0" shadow="0">
      <root>
        <mxCell id="0" />
        <mxCell id="1" parent="0" />
        <mxCell id="6UNC1zs_xFdjNf5D0c0b-2" style="rounded=0;orthogonalLoop=1;jettySize=auto;html=1;exitX=1;exitY=0.3333333333333333;exitDx=0;exitDy=0;exitPerimeter=0;entryX=0;entryY=0.5;entryDx=0;entryDy=0;fillColor=#a20025;strokeColor=#6F0000;" edge="1" parent="1" source="8E5aHSiouQHgghNjFQxi-4" target="8E5aHSiouQHgghNjFQxi-1">
          <mxGeometry relative="1" as="geometry" />
        </mxCell>
        <mxCell id="6UNC1zs_xFdjNf5D0c0b-3" style="rounded=0;orthogonalLoop=1;jettySize=auto;html=1;exitX=1;exitY=0.3333333333333333;exitDx=0;exitDy=0;exitPerimeter=0;entryX=0;entryY=0.5;entryDx=0;entryDy=0;fillColor=#a20025;strokeColor=#6F0000;" edge="1" parent="1" source="8E5aHSiouQHgghNjFQxi-4" target="8E5aHSiouQHgghNjFQxi-3">
          <mxGeometry relative="1" as="geometry" />
        </mxCell>
        <mxCell id="6UNC1zs_xFdjNf5D0c0b-4" style="rounded=0;orthogonalLoop=1;jettySize=auto;html=1;exitX=1;exitY=0.3333333333333333;exitDx=0;exitDy=0;exitPerimeter=0;entryX=0;entryY=0.5;entryDx=0;entryDy=0;fillColor=#a20025;strokeColor=#6F0000;" edge="1" parent="1" source="8E5aHSiouQHgghNjFQxi-4" target="8E5aHSiouQHgghNjFQxi-2">
          <mxGeometry relative="1" as="geometry" />
        </mxCell>
        <mxCell id="6UNC1zs_xFdjNf5D0c0b-6" style="rounded=0;orthogonalLoop=1;jettySize=auto;html=1;exitX=1;exitY=0.3333333333333333;exitDx=0;exitDy=0;exitPerimeter=0;entryX=0;entryY=0.5;entryDx=0;entryDy=0;fillColor=#a20025;strokeColor=#6F0000;" edge="1" parent="1" source="8E5aHSiouQHgghNjFQxi-4" target="6UNC1zs_xFdjNf5D0c0b-5">
          <mxGeometry relative="1" as="geometry" />
        </mxCell>
        <mxCell id="6UNC1zs_xFdjNf5D0c0b-16" style="rounded=0;orthogonalLoop=1;jettySize=auto;html=1;exitX=1;exitY=0.3333333333333333;exitDx=0;exitDy=0;exitPerimeter=0;entryX=0;entryY=0.5;entryDx=0;entryDy=0;fillColor=#a20025;strokeColor=#6F0000;" edge="1" parent="1" source="8E5aHSiouQHgghNjFQxi-4" target="6UNC1zs_xFdjNf5D0c0b-14">
          <mxGeometry relative="1" as="geometry" />
        </mxCell>
        <mxCell id="8E5aHSiouQHgghNjFQxi-4" value="&lt;font style=&quot;color: light-dark(rgb(0, 0, 0), rgb(255, 255, 255));&quot;&gt;Student&lt;/font&gt;" style="shape=umlActor;verticalLabelPosition=bottom;verticalAlign=top;html=1;outlineConnect=0;fillColor=#a20025;fontColor=#ffffff;strokeColor=#6F0000;" parent="1" vertex="1">
          <mxGeometry x="80" y="450" width="30" height="60" as="geometry" />
        </mxCell>
        <mxCell id="8E5aHSiouQHgghNjFQxi-6" value="" style="swimlane;startSize=0;" parent="1" vertex="1">
          <mxGeometry x="200" y="140" width="220" height="630" as="geometry" />
        </mxCell>
        <mxCell id="8E5aHSiouQHgghNjFQxi-7" value="Studyconnect task management" style="text;html=1;align=center;verticalAlign=middle;resizable=0;points=[];autosize=1;strokeColor=none;fillColor=none;" parent="8E5aHSiouQHgghNjFQxi-6" vertex="1">
          <mxGeometry x="15" y="20" width="190" height="30" as="geometry" />
        </mxCell>
        <mxCell id="8E5aHSiouQHgghNjFQxi-1" value="create task" style="ellipse;whiteSpace=wrap;html=1;" parent="8E5aHSiouQHgghNjFQxi-6" vertex="1">
          <mxGeometry x="50" y="520" width="120" height="80" as="geometry" />
        </mxCell>
        <mxCell id="8E5aHSiouQHgghNjFQxi-3" value="set progess state" style="ellipse;whiteSpace=wrap;html=1;" parent="8E5aHSiouQHgghNjFQxi-6" vertex="1">
          <mxGeometry x="50" y="404.5" width="120" height="80" as="geometry" />
        </mxCell>
        <mxCell id="8E5aHSiouQHgghNjFQxi-2" value="edit task" style="ellipse;whiteSpace=wrap;html=1;" parent="8E5aHSiouQHgghNjFQxi-6" vertex="1">
          <mxGeometry x="50" y="280" width="120" height="80" as="geometry" />
        </mxCell>
        <mxCell id="6UNC1zs_xFdjNf5D0c0b-5" value="export task" style="ellipse;whiteSpace=wrap;html=1;" vertex="1" parent="8E5aHSiouQHgghNjFQxi-6">
          <mxGeometry x="50" y="180" width="120" height="80" as="geometry" />
        </mxCell>
        <mxCell id="6UNC1zs_xFdjNf5D0c0b-14" value="assign task&lt;br&gt;to group member" style="ellipse;whiteSpace=wrap;html=1;" vertex="1" parent="8E5aHSiouQHgghNjFQxi-6">
          <mxGeometry x="50" y="80" width="120" height="80" as="geometry" />
        </mxCell>
        <mxCell id="6UNC1zs_xFdjNf5D0c0b-7" value="&lt;font style=&quot;color: light-dark(rgb(0, 0, 0), rgb(255, 255, 255));&quot;&gt;Group Admin&lt;/font&gt;" style="shape=umlActor;verticalLabelPosition=bottom;verticalAlign=top;html=1;outlineConnect=0;fillColor=#0050ef;fontColor=#ffffff;strokeColor=#001DBC;" vertex="1" parent="1">
          <mxGeometry x="80" y="610" width="30" height="60" as="geometry" />
        </mxCell>
        <mxCell id="6UNC1zs_xFdjNf5D0c0b-8" style="rounded=0;orthogonalLoop=1;jettySize=auto;html=1;entryX=0;entryY=0.5;entryDx=0;entryDy=0;fillColor=#0050ef;strokeColor=#001DBC;" edge="1" parent="1" target="8E5aHSiouQHgghNjFQxi-1">
          <mxGeometry relative="1" as="geometry">
            <mxPoint x="110" y="630" as="sourcePoint" />
            <mxPoint x="280" y="735" as="targetPoint" />
          </mxGeometry>
        </mxCell>
        <mxCell id="6UNC1zs_xFdjNf5D0c0b-9" style="rounded=0;orthogonalLoop=1;jettySize=auto;html=1;entryX=0;entryY=0.5;entryDx=0;entryDy=0;fillColor=#0050ef;strokeColor=#001DBC;" edge="1" parent="1" target="8E5aHSiouQHgghNjFQxi-3">
          <mxGeometry relative="1" as="geometry">
            <mxPoint x="110" y="630" as="sourcePoint" />
            <mxPoint x="280" y="840" as="targetPoint" />
          </mxGeometry>
        </mxCell>
        <mxCell id="6UNC1zs_xFdjNf5D0c0b-10" style="rounded=0;orthogonalLoop=1;jettySize=auto;html=1;entryX=0;entryY=0.5;entryDx=0;entryDy=0;fillColor=#0050ef;strokeColor=#001DBC;" edge="1" parent="1" target="8E5aHSiouQHgghNjFQxi-2">
          <mxGeometry relative="1" as="geometry">
            <mxPoint x="110" y="630" as="sourcePoint" />
            <mxPoint x="280" y="620" as="targetPoint" />
          </mxGeometry>
        </mxCell>
        <mxCell id="6UNC1zs_xFdjNf5D0c0b-11" style="rounded=0;orthogonalLoop=1;jettySize=auto;html=1;exitX=1;exitY=0.3333333333333333;exitDx=0;exitDy=0;exitPerimeter=0;entryX=0;entryY=0.5;entryDx=0;entryDy=0;fillColor=#0050ef;strokeColor=#001DBC;" edge="1" parent="1" source="6UNC1zs_xFdjNf5D0c0b-7" target="6UNC1zs_xFdjNf5D0c0b-5">
          <mxGeometry relative="1" as="geometry">
            <mxPoint x="140" y="620" as="sourcePoint" />
            <mxPoint x="280" y="510" as="targetPoint" />
          </mxGeometry>
        </mxCell>
        <mxCell id="6UNC1zs_xFdjNf5D0c0b-18" style="edgeStyle=orthogonalEdgeStyle;rounded=0;orthogonalLoop=1;jettySize=auto;html=1;exitX=1;exitY=0.3333333333333333;exitDx=0;exitDy=0;exitPerimeter=0;entryX=0;entryY=0.5;entryDx=0;entryDy=0;fillColor=#008a00;strokeColor=#005700;" edge="1" parent="1" source="6UNC1zs_xFdjNf5D0c0b-17" target="6UNC1zs_xFdjNf5D0c0b-14">
          <mxGeometry relative="1" as="geometry" />
        </mxCell>
        <mxCell id="6UNC1zs_xFdjNf5D0c0b-19" style="rounded=0;orthogonalLoop=1;jettySize=auto;html=1;exitX=1;exitY=0.3333333333333333;exitDx=0;exitDy=0;exitPerimeter=0;entryX=0;entryY=0.5;entryDx=0;entryDy=0;fillColor=#008a00;strokeColor=#005700;" edge="1" parent="1" source="6UNC1zs_xFdjNf5D0c0b-17" target="8E5aHSiouQHgghNjFQxi-3">
          <mxGeometry relative="1" as="geometry" />
        </mxCell>
        <mxCell id="6UNC1zs_xFdjNf5D0c0b-17" value="&lt;font style=&quot;color: light-dark(rgb(0, 0, 0), rgb(255, 255, 255));&quot;&gt;Group Member&lt;/font&gt;" style="shape=umlActor;verticalLabelPosition=bottom;verticalAlign=top;html=1;outlineConnect=0;fillColor=#008a00;fontColor=#ffffff;strokeColor=#005700;" vertex="1" parent="1">
          <mxGeometry x="80" y="240" width="30" height="60" as="geometry" />
        </mxCell>
      </root>
    </mxGraphModel>
  </diagram>
</mxfile>
